<svg width="134" height="38" viewBox="0 0 134 38" fill="none" xmlns="http://www.w3.org/2000/svg">
<path d="M6.89778 0.131736C4.15497 1.27947 1.13897 4.51856 0.187023 8.59266C-1.02074 13.7502 4.00052 15.9282 4.41079 15.2176C4.89353 14.3748 3.50815 14.0919 3.22525 11.4177C2.86126 7.95945 4.46488 4.09577 6.48846 2.40042C6.86592 2.09051 6.8476 2.52786 6.8476 3.33404C6.8476 4.78799 6.7665 17.7963 6.7665 20.5121C6.7665 24.1884 6.61589 25.346 6.33785 26.489C6.06458 27.6515 5.62246 28.4354 5.95554 28.7405C6.333 29.0774 7.93661 28.2751 8.86633 26.9776C9.97851 25.4232 10.3705 23.5551 10.4429 21.5277C10.5249 19.0861 10.5201 15.2041 10.5249 12.9942C10.5249 10.9619 10.5568 5.02064 10.493 1.44369C10.4747 0.569079 8.04182 -0.347169 6.89778 0.131736ZM133.354 19.4318C132.962 19.4318 132.775 19.8421 132.625 20.5305C132.105 22.9315 131.559 23.4731 130.852 23.4731C130.064 23.4731 129.358 22.2847 129.171 19.9058C129.03 18.0377 129.053 14.593 129.235 11.1667C129.272 10.4648 129.08 9.76871 127.193 9.0804C126.378 8.78881 125.198 8.35147 124.611 9.77262C122.947 13.7782 122.3 16.9671 122.145 18.2569C122.141 18.3244 122.059 18.3341 122.044 18.1796C121.95 17.1447 121.731 15.263 121.704 11.3077C121.694 10.543 121.535 9.88166 120.678 9.34396C120.127 8.99829 118.45 8.37848 117.844 9.11226C117.324 9.71368 116.719 11.3269 116.086 13.2404C115.575 14.7987 115.22 15.8558 115.22 15.8558C115.22 15.8558 115.223 11.6542 115.233 10.0594C115.233 9.45786 114.823 9.25802 114.7 9.22131C114.14 9.05723 113.032 8.78881 112.568 8.78881C111.99 8.78881 111.852 9.11226 111.852 9.58146C111.852 9.64033 111.757 15.1076 111.757 18.9308V19.4685C111.442 21.2275 110.404 23.615 109.279 23.615C108.153 23.615 107.62 22.6167 107.62 18.0609C107.62 15.404 107.702 14.2474 107.739 12.3243C107.761 11.2169 107.806 10.3653 107.802 10.1694C107.793 9.58146 106.767 9.28025 106.293 9.17113C105.816 9.05723 105.4 9.02052 105.073 9.03406C104.617 9.06201 104.294 9.36228 104.294 9.78225V10.4194C103.706 9.49066 102.753 8.8429 102.116 8.65652C100.412 8.15068 98.6298 8.60149 97.2859 10.4783C96.22 11.9738 95.5771 13.6633 95.327 16.0924C95.1397 17.8697 95.1996 19.6693 95.5317 21.1908C95.131 22.9083 94.3925 23.615 93.5863 23.615C92.4104 23.615 91.5638 21.7006 91.6594 18.3881C91.7279 16.2111 92.1604 14.6848 92.6383 12.47C92.844 11.5268 92.675 11.0354 92.2608 10.5565C91.8824 10.1279 91.0714 9.90483 89.91 10.1733C89.0845 10.3693 87.896 10.5787 86.8157 10.739C86.8157 10.739 86.8794 10.4783 86.9345 10.0188C87.2125 7.60806 84.5924 7.80407 83.7582 8.57449C83.2572 9.03406 82.9154 9.57661 82.788 10.5517C82.5833 12.1013 83.8451 12.8301 83.8451 12.8301C83.4309 14.7253 82.4191 17.2035 81.3668 18.9945C80.8059 19.9561 80.3772 20.6628 79.8221 21.4187C79.8171 21.1406 79.8171 20.8577 79.8171 20.5806C79.8074 16.5934 79.8576 13.4548 79.8808 12.3243C79.904 11.2169 79.9494 10.3876 79.9494 10.1916C79.9397 9.76292 79.6896 9.59493 79.1605 9.39414C78.6962 9.21262 78.145 9.0804 77.5753 9.03406C76.8599 8.97997 76.4226 9.36228 76.4361 9.81317V10.4194C75.8443 9.49066 74.8914 8.8429 74.2629 8.65652C72.5541 8.15068 70.7728 8.60149 69.4289 10.4783C68.367 11.9738 67.6651 14.065 67.4643 16.0692C67.2828 17.947 67.3146 19.5322 67.5695 20.8722C67.2963 22.2113 66.5172 23.615 65.6338 23.615C64.5081 23.615 63.8651 22.6167 63.8651 18.0609C63.8651 15.404 63.9472 14.2474 63.9887 12.3243C64.011 11.2169 64.0524 10.3653 64.0476 10.1694C64.0427 9.58146 63.0185 9.28025 62.5396 9.17113C62.0433 9.05332 61.6099 9.01668 61.2816 9.03406C60.8443 9.0707 60.5392 9.45786 60.5392 9.75423V10.4194C59.9474 9.49066 58.9945 8.8429 58.3612 8.65652C56.6572 8.15068 54.8895 8.6112 53.5359 10.4783C52.6526 11.6958 51.9372 13.0483 51.5684 16.047C51.468 16.913 51.4178 17.723 51.4226 18.4799C51.0712 20.6299 49.5178 23.1091 48.2511 23.1091C47.5039 23.1091 46.7933 21.6687 46.7933 18.5938C46.7933 14.5023 47.0482 8.67006 47.0936 8.10528C47.0936 8.10528 48.6971 8.07726 49.0119 8.07342C49.8093 8.06857 50.5382 8.08696 51.6003 8.03193C52.138 8.00493 52.6526 6.08655 52.0965 5.84522C51.8503 5.73994 50.0826 5.64436 49.3807 5.63089C48.7889 5.61735 47.1525 5.49476 47.1525 5.49476C47.1525 5.49476 47.2992 1.62623 47.3311 1.22075C47.3581 0.874133 46.9208 0.701368 46.6659 0.596087C46.0499 0.332523 45.4987 0.208995 44.8518 0.0767061C43.9453 -0.109599 43.5398 0.0728685 43.4626 0.832644C43.3438 1.98632 43.2801 5.36733 43.2801 5.36733C42.6149 5.36733 40.3597 5.2341 39.6983 5.2341C39.0843 5.2341 38.4181 7.87742 39.2707 7.90928C40.2505 7.94599 41.9497 7.9827 43.0793 8.01354C43.0793 8.01354 43.0291 13.9423 43.0291 15.7689V16.3337C42.4054 19.5727 40.2225 21.3231 40.2225 21.3231C40.6917 19.1769 39.735 17.5685 38.004 16.2111C37.3658 15.7052 36.1088 14.7523 34.7003 13.7183C34.7003 13.7183 35.516 12.9122 36.2401 11.299C36.7509 10.1549 36.774 8.83899 35.516 8.55132C33.4384 8.07342 31.7296 9.59978 31.215 11.2304C30.8231 12.4883 31.0287 13.4268 31.8069 14.397L31.9845 14.6162C31.5201 15.5179 30.8732 16.7343 30.3307 17.6776C28.814 20.2978 27.6699 22.3667 26.8088 22.3667C26.1165 22.3667 26.1252 20.266 26.1252 18.2974C26.1252 16.6021 26.2527 14.0466 26.3531 11.4042C26.385 10.5333 25.9476 10.0323 25.2149 9.58146C24.7678 9.30819 23.8198 8.77049 23.2685 8.77049C22.4489 8.77049 20.07 8.87954 17.8244 15.3721C17.5415 16.1927 16.9854 17.6824 16.9854 17.6824L17.0357 9.87298C17.0357 9.69051 16.9401 9.51774 16.7171 9.39414C16.3386 9.18945 15.3229 8.77049 14.4299 8.77049C13.9964 8.77049 13.7821 8.97128 13.7821 9.36713L13.7097 21.578C13.7097 22.5077 13.7319 23.5919 13.8237 24.0659C13.9144 24.5399 14.065 24.9271 14.2475 25.1588C14.4299 25.3827 14.6433 25.5556 14.9899 25.6328C15.3133 25.7013 17.0945 25.9243 17.1863 25.2457C17.3002 24.4298 17.304 23.5513 18.2386 20.2573C19.6964 15.1356 21.5925 12.639 22.4855 11.7498C22.6448 11.5953 22.8225 11.5857 22.8128 11.8415C22.7722 12.9662 22.64 15.7689 22.5492 18.1517C22.3079 24.5351 23.4645 25.7149 25.128 25.7149C26.3946 25.7149 28.1807 24.453 30.099 21.2642C31.2971 19.2725 32.4546 17.3271 33.2927 15.9195C33.8671 16.4563 34.5226 17.0356 35.1743 17.6554C36.6919 19.0901 37.1882 20.4571 36.8561 21.7518C36.605 22.7442 35.6532 23.7647 33.9627 22.7722C33.4703 22.4845 33.2608 22.2615 32.7645 21.9332C32.5 21.7556 32.0897 21.7054 31.8483 21.8879C31.2102 22.3667 30.8501 22.9721 30.6406 23.7242C30.4446 24.4579 31.1784 24.8402 31.9391 25.1771C32.5907 25.4735 33.9945 25.7332 34.8914 25.765C38.3863 25.8838 41.1841 24.0794 43.1295 19.4318C43.4809 23.4461 44.9609 25.7197 47.5357 25.7197C49.2619 25.7197 50.9891 23.4914 51.746 21.2999C51.9594 22.1929 52.2828 22.9672 52.698 23.6286C54.6848 26.772 58.5388 26.0981 60.4706 23.4277C61.0721 22.5984 61.1639 22.3021 61.1639 22.3021C61.4458 24.8228 63.478 25.71 64.6404 25.71C65.9476 25.71 67.2876 25.0912 68.2299 22.9672C68.3438 23.1999 68.4626 23.419 68.5997 23.6286C70.5817 26.772 74.4357 26.0981 76.3724 23.4277C76.4593 23.2955 76.5413 23.1864 76.6089 23.0812L76.6688 24.7397C76.6688 24.7397 75.5614 25.7516 74.8828 26.3752C71.8985 29.1142 69.6289 31.1918 69.4609 33.6064C69.2513 36.6909 71.7479 37.835 73.6431 37.9846C75.6483 38.1449 77.3707 37.0375 78.4268 35.4793C79.3566 34.1122 79.9677 31.1735 79.9223 28.2665C79.904 27.1002 79.876 25.6241 79.8489 24.0341C80.9013 22.8224 82.0859 21.2815 83.171 19.4782C84.3595 17.5183 85.6261 14.8798 86.2729 12.8253C86.2729 12.8253 87.3804 12.835 88.5563 12.7616C88.9347 12.7384 89.0438 12.8166 88.9704 13.0898C88.8883 13.422 87.4856 18.84 88.7657 22.4488C89.6453 24.9174 91.6176 25.7149 92.7936 25.7149C94.1644 25.7149 95.4774 24.676 96.1783 23.1362C96.2652 23.3051 96.3521 23.4731 96.4525 23.6286C98.4346 26.772 102.275 26.0933 104.225 23.4277C104.667 22.8224 104.914 22.3021 104.914 22.3021C105.333 24.9135 107.365 25.7197 108.526 25.7197C109.743 25.7197 110.891 25.2234 111.825 23.0175C111.862 23.9887 111.921 24.7813 112.021 25.0313C112.08 25.1868 112.427 25.3779 112.673 25.4735C113.784 25.8838 114.915 25.6879 115.329 25.601C115.62 25.542 115.848 25.3142 115.876 24.7127C115.957 23.1362 115.907 20.489 116.386 18.5166C117.192 15.2177 117.939 13.9375 118.295 13.3042C118.492 12.9479 118.718 12.8891 118.723 13.2627C118.737 14.0234 118.778 16.2564 119.092 19.2638C119.316 21.4689 119.621 22.776 119.858 23.1912C120.523 24.371 121.352 24.426 122.022 24.426C122.451 24.426 123.344 24.3073 123.266 23.5552C123.225 23.1912 123.294 20.9263 124.081 17.6738C124.601 15.5459 125.462 13.6276 125.772 12.9257C125.891 12.666 125.941 12.8668 125.941 12.9074C125.872 14.37 125.727 19.1586 126.318 21.7739C127.13 25.3239 129.467 25.7197 130.282 25.7197C132.018 25.7197 133.445 24.398 133.923 20.9176C134.042 20.0786 133.868 19.4318 133.354 19.4318ZM60.5025 17.2817C60.4069 19.1218 60.0468 20.6627 59.4733 21.7787C58.4248 23.8061 56.3617 24.4443 55.4542 21.5238C54.7939 19.4144 55.0169 16.5344 55.2949 14.9801C55.6956 12.6747 56.7122 11.044 58.2974 11.1936C59.9193 11.3539 60.712 13.4451 60.5025 17.2817ZM76.3996 17.3088C76.3088 19.0446 75.858 20.794 75.3656 21.7787C74.3499 23.8197 72.226 24.4578 71.3464 21.5238C70.746 19.5138 70.8869 16.9216 71.1871 15.29C71.5753 13.167 72.5088 11.1936 74.1906 11.1936C75.8261 11.1936 76.6322 12.9893 76.3996 17.3088ZM76.8147 29.173C76.7915 32.3493 76.2953 35.1287 75.2284 35.9397C73.7069 37.0877 71.6612 36.2217 72.085 33.9075C72.4586 31.8569 74.2312 29.7658 76.8195 27.2093C76.8195 27.2093 76.8284 27.7924 76.8147 29.173ZM104.262 17.3271C104.17 19.2367 103.747 20.7264 103.223 21.7787C102.207 23.8197 100.102 24.4529 99.2041 21.5238C98.7166 19.9241 98.6934 17.2537 99.0448 15.0265C99.4001 12.7567 100.398 11.044 102.047 11.1936C103.678 11.3491 104.44 13.4451 104.262 17.3271Z" fill="#231E1F"/>
</svg>
