<svg width="635" height="128" viewBox="0 0 635 128" fill="none" xmlns="http://www.w3.org/2000/svg">
<g clip-path="url(#clip0_8034_16206)">
<path d="M233.044 4.11279H257.108L298.025 78.1593L338.941 4.11286H362.484V125.785H342.851V32.5324L306.973 97.1057H288.556L252.677 32.5324V125.785H233.044V4.11279Z" fill="#888888"/>
<path d="M425.812 127.958C416.719 127.958 408.727 125.945 401.836 121.918C394.943 117.891 389.572 112.315 385.721 105.188C381.869 98.0612 379.943 89.8918 379.944 80.6798C379.944 71.352 381.826 63.0956 385.591 55.9107C389.355 48.7272 394.582 43.1069 401.271 39.0498C407.961 34.9952 415.649 32.9674 424.336 32.9663C432.965 32.9663 440.392 35.0086 446.619 39.0931C452.843 43.1787 457.636 48.9004 460.996 56.2581C464.354 63.6169 466.034 72.2499 466.034 82.1571V87.5446H399.403C400.62 94.9622 403.617 100.8 408.395 105.057C413.173 109.316 419.21 111.445 426.507 111.445C432.357 111.445 437.395 110.576 441.623 108.837C445.85 107.099 449.818 104.463 453.525 100.929L463.95 113.704C453.582 123.208 440.869 127.959 425.812 127.958ZM440.147 55.7797C436.034 51.5797 430.648 49.4794 423.988 49.4786C417.501 49.4786 412.072 51.6226 407.7 55.9106C403.326 60.1983 400.561 65.9632 399.403 73.2055H447.183C446.604 65.789 444.258 59.9804 440.147 55.7797Z" fill="#888888"/>
<path d="M489.84 51.2181H471.77V35.1397H489.84V8.5459H508.778V35.1397H536.229V51.2181H508.778V91.9779C508.778 98.7562 509.936 103.594 512.252 106.491C514.568 109.389 518.535 110.838 524.154 110.837C526.643 110.837 528.757 110.735 530.496 110.533C532.233 110.331 534.144 110.055 536.229 109.707V125.611C533.85 126.299 531.426 126.822 528.975 127.176C526.171 127.589 523.34 127.792 520.505 127.784C500.061 127.784 489.839 116.602 489.84 94.2377V51.2181Z" fill="#888888"/>
<path d="M634.919 125.785H616.328V113.096C613.027 117.848 608.828 121.513 603.732 124.09C598.635 126.668 592.843 127.957 586.357 127.958C578.365 127.958 571.285 125.916 565.117 121.831C558.949 117.746 554.098 112.126 550.566 104.971C547.033 97.8151 545.266 89.6312 545.266 80.4192C545.266 71.1491 547.062 62.9505 550.653 55.8233C554.243 48.6975 559.209 43.1065 565.551 39.0501C571.893 34.9955 579.176 32.9677 587.399 32.9666C593.596 32.9666 599.156 34.169 604.079 36.5738C608.935 38.924 613.141 42.4302 616.328 46.7851V35.1398H634.919V125.785ZM615.981 66.8614C613.953 61.7047 610.753 57.6342 606.381 54.65C602.008 51.6665 596.955 50.1747 591.222 50.1748C583.113 50.1748 576.656 52.8978 571.85 58.3438C567.042 63.7902 564.638 71.1486 564.639 80.4191C564.639 89.748 566.956 97.1353 571.589 102.581C576.222 108.027 582.505 110.75 590.44 110.75C596.289 110.75 601.501 109.244 606.077 106.23C610.652 103.219 613.953 99.1635 615.981 94.0634V66.8614Z" fill="#888888"/>
<path d="M138.183 0C122.395 0 110.054 11.8958 98.8819 27.0071C83.5297 7.45155 70.6906 0 55.326 0C24.0011 0 0 40.7834 0 83.9503C0 110.963 13.0628 128 34.9427 128C50.6905 128 62.0163 120.573 82.1507 85.3628C82.1507 85.3628 90.5437 70.5351 96.3176 60.321C98.3408 63.5891 100.472 67.1106 102.71 70.8855L112.152 86.7752C130.544 117.565 140.791 128 159.36 128C180.675 128 192.538 110.73 192.538 83.1559C192.538 37.9586 167.996 0 138.183 0ZM66.7971 75.829C50.4728 101.429 44.8255 107.167 35.7369 107.167C26.3835 107.167 20.8244 98.9521 20.8244 84.3035C20.8244 52.9655 36.4428 20.9214 55.0613 20.9214C65.1436 20.9214 73.5692 26.7467 86.475 45.2303C74.2204 64.0349 66.7971 75.829 66.7971 75.829ZM128.407 72.6062L117.118 53.7712C114.063 48.8007 111.127 44.2256 108.311 40.0458C118.485 24.3357 126.877 16.5076 136.859 16.5076C157.595 16.5076 174.184 47.0511 174.184 84.5683C174.184 98.869 169.502 107.167 159.801 107.167C150.503 107.167 146.061 101.024 128.407 72.6062Z" fill="#888888"/>
</g>
<defs>
<clipPath id="clip0_8034_16206">
<rect width="635" height="128" fill="white"/>
</clipPath>
</defs>
</svg>
