<svg width="24" height="24" viewBox="0 0 24 24" fill="none" xmlns="http://www.w3.org/2000/svg">
<path d="M5.35457 18.5695C4.82047 17.9151 4.28528 17.2324 3.83502 16.5085C3.31917 15.6794 2.90237 14.784 2.6963 13.7914C2.16846 11.2521 2.7314 8.73906 4.06914 6.73079C5.40684 4.72174 7.51986 3.21746 10.0894 2.69438C12.6576 2.17189 15.1982 2.72884 17.2291 4.05146C19.2607 5.37456 20.7827 7.46437 21.3111 10.0056C21.574 11.2706 21.5531 12.5103 21.3067 13.6821C21.0432 14.9347 20.5205 16.1109 19.813 17.1592C18.8491 18.5867 17.608 19.5943 16.114 20.2044C14.6181 20.8152 12.8827 21.0168 10.9316 20.8348L10.5669 20.8004C9.81718 20.7288 9.53323 20.7019 9.30947 20.7598C9.14639 20.8036 8.93653 20.8968 8.60196 21.0448L8.28726 21.1835C7.50788 21.5262 6.93514 21.5711 6.48947 21.4115C5.90749 21.2029 5.64449 20.7592 5.522 20.1852C5.46102 19.8991 5.44169 19.6008 5.42156 19.2859C5.40658 19.0465 5.38998 18.7946 5.35457 18.5695ZM7.15589 13.8219L9.47525 10.1537C9.88739 9.53833 10.7414 9.40451 11.3286 9.85949L13.2821 11.3788C13.4617 11.5175 13.7127 11.5231 13.8965 11.3907L16.3762 9.66726C16.7396 9.40614 17.1975 9.8417 16.9506 10.2124L14.6092 13.8434C14.197 14.4585 13.343 14.5926 12.7558 14.1374L10.8024 12.618C10.6227 12.4793 10.372 12.4734 10.1879 12.6061L7.72811 14.3651C7.36497 14.6262 6.90683 14.1928 7.15589 13.8219ZM5.30722 15.6137C5.75691 16.3368 6.29376 17.0097 6.82133 17.6523C6.90955 17.7563 6.97118 17.8798 7.001 18.0122C7.09491 18.4193 7.12022 18.8118 7.14365 19.1792C7.15807 19.4059 7.17197 19.6218 7.19971 19.782C7.2833 19.7532 7.41123 19.7018 7.59256 19.6223L7.8996 19.4888C8.32128 19.302 8.58615 19.1846 8.86383 19.1114H8.86736C9.38134 18.976 9.7494 19.0107 10.7291 19.1044L11.0939 19.1389C12.7643 19.2947 14.2267 19.1316 15.4591 18.6285C16.6323 18.1493 17.6129 17.3495 18.3816 16.211C18.968 15.3423 19.4009 14.3694 19.6184 13.3349C19.8187 12.3811 19.8362 11.3735 19.6227 10.3464C19.1902 8.26606 17.9453 6.55582 16.2839 5.47389C14.6214 4.39118 12.5394 3.93542 10.434 4.36397C8.33082 4.79203 6.60136 6.02282 5.50759 7.66548C4.41242 9.30978 3.9518 11.3686 4.38463 13.4506C4.54253 14.2117 4.88201 14.9304 5.30722 15.6137Z" fill="black"/>
</svg>
