<svg width="24" height="24" viewBox="0 0 24 24" fill="none" xmlns="http://www.w3.org/2000/svg">
<path d="M20.2497 2.54885C20.5911 2.43506 20.9676 2.52356 21.222 2.778C21.4764 3.03244 21.5649 3.4089 21.4512 3.75026L15.7511 20.8503C15.6246 21.2296 15.2742 21.4894 14.8744 21.4997C14.4747 21.5099 14.111 21.2681 13.9653 20.8957L10.9102 13.0888L3.10426 10.0347C2.73186 9.88902 2.49016 9.52531 2.50031 9.12556C2.51055 8.72582 2.77043 8.37541 3.14972 8.24885L20.2497 2.54885ZM12.7546 12.5879L14.7789 17.76L18.3766 6.96579L12.7546 12.5879ZM6.23908 9.22019L11.4112 11.2445L17.0333 5.62243L6.23908 9.22019Z" fill="black"/>
</svg>
